# xmcd
#
# Track frame offsets: 
#        150
#        31817
#        112818
#        166667
#        204402
#
# Disc length: 3241 seconds
#
# Revision: 0
# Processed by: cddbd v1.5.2PL0 Copyright (c) Steve Scherf et al.
# Submitted via: ExactAudioCopyFreeDBPlugin 1.0
#
DISCID=2e0ca705
DTITLE=Friedrich Gulda o. Ginette Neveu, Gustav Beck - Violinsonate ES
DTITLE=Dur OP. 18
DYEAR=1954
DGENRE=Classical
TTITLE0=Liebesszene (Feuersnot op. 50)
TTITLE1=Burleske d-moll für Klavier und Orchester TrV 145
TTITLE2=Violinsonate, Allegro ma non troppo
TTITLE3=Violinsonate Improvisation: Andante cantabile
TTITLE4=Violinsonate Finale: Andante, Allegro
EXTD=
EXTT0=
EXTT1=
EXTT2=
EXTT3=
EXTT4=
PLAYORDER=
